<svg width="12" height="12" viewBox="0 0 12 12" fill="none" xmlns="http://www.w3.org/2000/svg">
<path d="M1.336 0.229221C1.03037 -0.0764069 0.534849 -0.0764069 0.229221 0.229221C-0.0764069 0.534849 -0.0764069 1.03037 0.229221 1.336L4.89322 6L0.229221 10.664C-0.0764064 10.9696 -0.0764064 11.4652 0.229221 11.7708C0.534849 12.0764 1.03037 12.0764 1.336 11.7708L6 7.10678L10.664 11.7708C10.9696 12.0764 11.4652 12.0764 11.7708 11.7708C12.0764 11.4652 12.0764 10.9696 11.7708 10.664L7.10678 6L11.7708 1.336C12.0764 1.03037 12.0764 0.534849 11.7708 0.229221C11.4652 -0.0764069 10.9696 -0.0764069 10.664 0.229221L6 4.89322L1.336 0.229221Z" fill="#131318"/>
</svg>
