<svg width="20" height="20" viewBox="0 0 20 20" fill="none" xmlns="http://www.w3.org/2000/svg">
<path fill-rule="evenodd" clip-rule="evenodd" d="M10 5.07808e-06C4.47715 5.07808e-06 0 4.47716 0 10C0 15.5228 4.47715 20 10 20C15.5228 20 20 15.5228 20 10C20.0027 7.34702 18.95 4.80193 17.074 2.92598C15.1981 1.05004 12.653 -0.00266795 10 5.07808e-06ZM11.006 14.6479C11.006 15.2035 10.5556 15.6539 10 15.6539C9.44438 15.6539 8.99396 15.2035 8.99396 14.6479V10.2314C8.99396 9.67577 9.44438 9.22535 10 9.22535C10.5556 9.22535 11.006 9.67577 11.006 10.2314V14.6479ZM10 7.06238C9.23324 7.06238 8.61167 6.4408 8.61167 5.67405C8.61167 4.90729 9.23324 4.28572 10 4.28572C10.7667 4.28572 11.3883 4.90729 11.3883 5.67405C11.391 6.04308 11.2456 6.39778 10.9847 6.65873C10.7237 6.91968 10.369 7.06508 10 7.06238Z" fill="#d23f2f"/>
<path fill-rule="evenodd" clip-rule="evenodd" d="M10 5.07808e-06C4.47715 5.07808e-06 0 4.47716 0 10C0 15.5228 4.47715 20 10 20C15.5228 20 20 15.5228 20 10C20.0027 7.34702 18.95 4.80193 17.074 2.92598C15.1981 1.05004 12.653 -0.00266795 10 5.07808e-06ZM11.006 14.6479C11.006 15.2035 10.5556 15.6539 10 15.6539C9.44438 15.6539 8.99396 15.2035 8.99396 14.6479V10.2314C8.99396 9.67577 9.44438 9.22535 10 9.22535C10.5556 9.22535 11.006 9.67577 11.006 10.2314V14.6479ZM10 7.06238C9.23324 7.06238 8.61167 6.4408 8.61167 5.67405C8.61167 4.90729 9.23324 4.28572 10 4.28572C10.7667 4.28572 11.3883 4.90729 11.3883 5.67405C11.391 6.04308 11.2456 6.39778 10.9847 6.65873C10.7237 6.91968 10.369 7.06508 10 7.06238Z" fill="#d23f2f"/>
</svg>
